<svg width="1200" height="630" viewBox="0 0 1200 630" fill="none" xmlns="http://www.w3.org/2000/svg">
  <rect width="1200" height="630" fill="#07070F"/>
  <rect width="1200" height="630" fill="url(#bgGlow)"/>
  <rect x="74" y="56" width="1052" height="518" rx="36" fill="url(#panel)" stroke="rgba(255,255,255,0.08)"/>
  <circle cx="370" cy="168" r="230" fill="url(#redAura)" opacity="0.92"/>
  <circle cx="900" cy="164" r="180" fill="url(#blueAura)" opacity="0.24"/>

  <g opacity="0.9">
    <rect x="470" y="88" width="260" height="38" rx="19" fill="rgba(255,255,255,0.06)" stroke="rgba(255,255,255,0.16)"/>
    <text x="600" y="113" text-anchor="middle" fill="rgba(255,255,255,0.75)" font-family="JetBrains Mono, monospace" font-size="18" letter-spacing="3">2026 · SEMESTER 2</text>
  </g>

  <text x="138" y="276" fill="#FFF8F4" font-family="Georgia, 'Times New Roman', serif" font-size="118" font-weight="700">Exam</text>
  <text x="138" y="380" fill="#FFF8F4" font-family="Georgia, 'Times New Roman', serif" font-size="118" font-weight="700">Prep</text>
  <text x="141" y="432" fill="rgba(255,255,255,0.76)" font-family="Inter, Arial, sans-serif" font-size="30" letter-spacing="5">INTERACTIVE STUDY BOOK</text>

  <g>
    <rect x="141" y="476" width="92" height="38" rx="19" fill="#E63946"/>
    <rect x="249" y="476" width="92" height="38" rx="19" fill="#2563EB"/>
    <rect x="357" y="476" width="100" height="38" rx="19" fill="#16A34A"/>
    <rect x="473" y="476" width="102" height="38" rx="19" fill="#7C3AED"/>
    <text x="187" y="501" text-anchor="middle" fill="white" font-family="Inter, Arial, sans-serif" font-size="20" font-weight="700">DSA</text>
    <text x="295" y="501" text-anchor="middle" fill="white" font-family="Inter, Arial, sans-serif" font-size="20" font-weight="700">AFD</text>
    <text x="407" y="501" text-anchor="middle" fill="white" font-family="Inter, Arial, sans-serif" font-size="20" font-weight="700">FOML</text>
    <text x="524" y="501" text-anchor="middle" fill="white" font-family="Inter, Arial, sans-serif" font-size="20" font-weight="700">DBMS</text>
  </g>

  <g opacity="0.95">
    <path d="M848 177L986 255V454L828 533L670 454V255L808 177L828 201L848 177Z" fill="rgba(255,255,255,0.05)" stroke="rgba(255,255,255,0.12)"/>
    <path d="M747 238L828 294L909 238V456L828 515L747 456V238Z" fill="#F8FAFC"/>
    <path d="M828 294L878 244L910 238L828 343L746 238L778 244L828 294Z" fill="#2563EB"/>
    <path d="M828 130L850 176L828 204L806 176L828 130Z" fill="#2563EB"/>
  </g>

  <text x="956" y="536" text-anchor="end" fill="rgba(255,255,255,0.72)" font-family="JetBrains Mono, monospace" font-size="22" letter-spacing="1">by: ~prats</text>

  <defs>
    <radialGradient id="bgGlow" cx="0" cy="0" r="1" gradientUnits="userSpaceOnUse" gradientTransform="translate(600 32) rotate(90) scale(680 1240)">
      <stop stop-color="#111827"/>
      <stop offset="1" stop-color="#07070F"/>
    </radialGradient>
    <radialGradient id="redAura" cx="0" cy="0" r="1" gradientUnits="userSpaceOnUse" gradientTransform="translate(370 168) rotate(90) scale(230)">
      <stop stop-color="#E63946"/>
      <stop offset="1" stop-color="#E63946" stop-opacity="0"/>
    </radialGradient>
    <radialGradient id="blueAura" cx="0" cy="0" r="1" gradientUnits="userSpaceOnUse" gradientTransform="translate(900 164) rotate(90) scale(180)">
      <stop stop-color="#2563EB"/>
      <stop offset="1" stop-color="#2563EB" stop-opacity="0"/>
    </radialGradient>
    <linearGradient id="panel" x1="600" y1="56" x2="600" y2="574" gradientUnits="userSpaceOnUse">
      <stop stop-color="#0E0E14"/>
      <stop offset="1" stop-color="#0A0A12"/>
    </linearGradient>
  </defs>
</svg>
